<svg width="20" height="10" viewBox="0 0 20 10" fill="none" xmlns="http://www.w3.org/2000/svg">
<path d="M2.5 2.5H8.75V7.5H2.5V2.5Z" fill="black"/>
<path d="M2.5 0C1.83696 0 1.20107 0.263392 0.732233 0.732233C0.263392 1.20107 0 1.83696 0 2.5L0 7.5C0 8.16304 0.263392 8.79893 0.732233 9.26777C1.20107 9.73661 1.83696 10 2.5 10H15C15.663 10 16.2989 9.73661 16.7678 9.26777C17.2366 8.79893 17.5 8.16304 17.5 7.5V2.5C17.5 1.83696 17.2366 1.20107 16.7678 0.732233C16.2989 0.263392 15.663 0 15 0H2.5ZM15 1.25C15.3315 1.25 15.6495 1.3817 15.8839 1.61612C16.1183 1.85054 16.25 2.16848 16.25 2.5V7.5C16.25 7.83152 16.1183 8.14946 15.8839 8.38388C15.6495 8.6183 15.3315 8.75 15 8.75H2.5C2.16848 8.75 1.85054 8.6183 1.61612 8.38388C1.3817 8.14946 1.25 7.83152 1.25 7.5V2.5C1.25 2.16848 1.3817 1.85054 1.61612 1.61612C1.85054 1.3817 2.16848 1.25 2.5 1.25H15ZM20 5C20 5.49728 19.8025 5.97419 19.4508 6.32583C19.0992 6.67746 18.6223 6.875 18.125 6.875V3.125C18.6223 3.125 19.0992 3.32254 19.4508 3.67417C19.8025 4.02581 20 4.50272 20 5Z" fill="black"/>
</svg>
