<svg width="18" height="16" viewBox="0 0 18 16" fill="none" xmlns="http://www.w3.org/2000/svg">
<path d="M16.9422 12.6195C17.3866 11.7386 17.6105 10.7629 17.5946 9.77634C17.5787 8.78978 17.3235 7.82183 16.8509 6.9557C16.3783 6.08956 15.7024 5.35113 14.8814 4.80389C14.0604 4.25665 13.1188 3.91696 12.1375 3.81401C11.8259 3.05561 11.3646 2.36787 10.781 1.79198C10.1974 1.21608 9.50361 0.76388 8.74114 0.462441C7.97867 0.161003 7.16322 0.016529 6.3436 0.037671C5.52398 0.0588129 4.71706 0.245136 3.97114 0.585483C3.22523 0.92583 2.55567 1.4132 2.00255 2.01841C1.44943 2.62363 1.02414 3.33424 0.752124 4.10769C0.480111 4.88115 0.366978 5.70154 0.419498 6.51974C0.472018 7.33795 0.689112 8.13715 1.05778 8.86948L0.442936 11.0234C0.397128 11.1841 0.3951 11.3541 0.437063 11.5158C0.479025 11.6776 0.563453 11.8252 0.681606 11.9433C0.799759 12.0615 0.947344 12.1459 1.10908 12.1879C1.27082 12.2298 1.44084 12.2278 1.60153 12.182L3.75544 11.5671C4.41405 11.8981 5.12709 12.1072 5.86012 12.1843C6.17898 12.962 6.65516 13.6653 7.25876 14.2502C7.86237 14.835 8.58037 15.2888 9.36769 15.583C10.155 15.8772 10.9946 16.0054 11.8339 15.9597C12.6731 15.9139 13.4938 15.6952 14.2445 15.3171L16.3984 15.932C16.5591 15.9778 16.7291 15.9798 16.8909 15.9379C17.0526 15.8959 17.2002 15.8115 17.3183 15.6933C17.4365 15.5752 17.5209 15.4276 17.5629 15.2658C17.6048 15.1041 17.6028 14.9341 17.557 14.7734L16.9422 12.6195ZM3.807 10.596C3.76339 10.5958 3.71998 10.6019 3.67809 10.614L1.34372 11.2812L2.01012 8.9476C2.04416 8.82909 2.03012 8.70194 1.97106 8.5937C1.37838 7.5046 1.198 6.2384 1.46297 5.02712C1.72795 3.81584 2.42053 2.7406 3.41381 1.99844C4.40708 1.25628 5.63454 0.896894 6.87124 0.986141C8.10795 1.07539 9.27108 1.60729 10.1475 2.48438C11.0239 3.36147 11.555 4.525 11.6433 5.76178C11.7316 6.99855 11.3713 8.22573 10.6283 9.21845C9.88543 10.2112 8.80967 10.9029 7.59819 11.167C6.38671 11.431 5.12065 11.2497 4.032 10.6562C3.96313 10.6178 3.88582 10.5972 3.807 10.596ZM15.989 12.6968L16.6562 15.0312L14.3226 14.3648C14.2041 14.3308 14.077 14.3448 13.9687 14.4039C13.3625 14.7343 12.6961 14.9397 12.009 15.0077C11.322 15.0758 10.6282 15.0052 9.96896 14.8001C9.3097 14.595 8.69835 14.2595 8.17116 13.8137C7.64397 13.3679 7.2117 12.8207 6.89997 12.2046C7.77648 12.1476 8.63026 11.9016 9.4027 11.4834C10.1751 11.0652 10.8479 10.4849 11.3749 9.78215C11.9019 9.07943 12.2705 8.27098 12.4556 7.41233C12.6406 6.55368 12.6376 5.66515 12.4468 4.80776C13.247 4.95675 14.0005 5.29304 14.6457 5.78912C15.2909 6.28519 15.8096 6.92697 16.1592 7.66194C16.5088 8.39691 16.6795 9.20421 16.6572 10.0178C16.635 10.8314 16.4205 11.6281 16.0312 12.3429C15.9711 12.4507 15.9559 12.5779 15.989 12.6968Z" fill="black"/>
</svg>
