<svg width="14" height="18" viewBox="0 0 14 18" fill="none" xmlns="http://www.w3.org/2000/svg">
<path d="M11.7958 10.6667C12.042 10.6668 12.2856 10.7154 12.513 10.8097C12.7403 10.904 12.9469 11.0421 13.1208 11.2163C13.2948 11.3904 13.4327 11.597 13.5268 11.8245C13.6209 12.0519 13.6693 12.2956 13.6692 12.5417V13.3067C13.6692 13.7842 13.52 14.2498 13.2425 14.6384C11.9542 16.4417 9.85084 17.3342 7.00084 17.3342C4.14917 17.3342 2.04667 16.4409 0.76167 14.6376C0.485108 14.2492 0.336544 13.7843 0.33667 13.3076V12.5409C0.33667 12.0438 0.534126 11.5671 0.885601 11.2157C1.23707 10.8642 1.71378 10.6667 2.21084 10.6667H11.7958ZM7 0.670898C7.54718 0.670898 8.08899 0.778672 8.59452 0.988067C9.10004 1.19746 9.55937 1.50438 9.94628 1.89129C10.3332 2.2782 10.6401 2.73753 10.8495 3.24305C11.0589 3.74857 11.1667 4.29039 11.1667 4.83756C11.1667 5.38474 11.0589 5.92656 10.8495 6.43208C10.6401 6.9376 10.3332 7.39693 9.94628 7.78384C9.55937 8.17075 9.10004 8.47767 8.59452 8.68706C8.08899 8.89646 7.54718 9.00423 7 9.00423C5.89493 9.00423 4.83513 8.56524 4.05372 7.78384C3.27232 7.00244 2.83334 5.94263 2.83334 4.83756C2.83334 3.7325 3.27232 2.67269 4.05372 1.89129C4.83513 1.10989 5.89493 0.670898 7 0.670898Z" fill="black"/>
</svg>
