<svg width="12" height="13" viewBox="0 0 12 13" fill="none" xmlns="http://www.w3.org/2000/svg">
<path d="M11.4375 1.625V11.625C11.4375 11.8736 11.3387 12.1121 11.1629 12.2879C10.9871 12.4637 10.7486 12.5625 10.5 12.5625C10.2514 12.5625 10.0129 12.4637 9.83709 12.2879C9.66127 12.1121 9.5625 11.8736 9.5625 11.625V1.625C9.5625 1.37636 9.66127 1.1379 9.83709 0.962087C10.0129 0.786272 10.2514 0.6875 10.5 0.6875C10.7486 0.6875 10.9871 0.786272 11.1629 0.962087C11.3387 1.1379 11.4375 1.37636 11.4375 1.625ZM7.375 3.8125C7.12636 3.8125 6.8879 3.91127 6.71209 4.08709C6.53627 4.2629 6.4375 4.50136 6.4375 4.75V11.625C6.4375 11.8736 6.53627 12.1121 6.71209 12.2879C6.8879 12.4637 7.12636 12.5625 7.375 12.5625C7.62364 12.5625 7.8621 12.4637 8.03791 12.2879C8.21373 12.1121 8.3125 11.8736 8.3125 11.625V4.75C8.3125 4.50136 8.21373 4.2629 8.03791 4.08709C7.8621 3.91127 7.62364 3.8125 7.375 3.8125ZM4.25 6.9375C4.00136 6.9375 3.7629 7.03627 3.58709 7.21209C3.41127 7.3879 3.3125 7.62636 3.3125 7.875V11.625C3.3125 11.8736 3.41127 12.1121 3.58709 12.2879C3.7629 12.4637 4.00136 12.5625 4.25 12.5625C4.49864 12.5625 4.7371 12.4637 4.91291 12.2879C5.08873 12.1121 5.1875 11.8736 5.1875 11.625V7.875C5.1875 7.62636 5.08873 7.3879 4.91291 7.21209C4.7371 7.03627 4.49864 6.9375 4.25 6.9375ZM1.125 10.0625C0.87636 10.0625 0.637903 10.1613 0.462087 10.3371C0.286272 10.5129 0.1875 10.7514 0.1875 11V11.625C0.1875 11.8736 0.286272 12.1121 0.462087 12.2879C0.637903 12.4637 0.87636 12.5625 1.125 12.5625C1.37364 12.5625 1.6121 12.4637 1.78791 12.2879C1.96373 12.1121 2.0625 11.8736 2.0625 11.625V11C2.0625 10.7514 1.96373 10.5129 1.78791 10.3371C1.6121 10.1613 1.37364 10.0625 1.125 10.0625Z" fill="black"/>
</svg>
